<svg xmlns="http://www.w3.org/2000/svg" width="260" height="700" viewBox="0 0 260 700">
  <!-- Líneas desordenadas entre nodos -->
  <path d="M180 40 Q220 80 130 140 Q90 180 170 220" fill="none" stroke="#455377" stroke-width="1.2" opacity=".3"/>
  <path d="M130 140 Q200 180 80 260 Q40 290 150 340" fill="none" stroke="#CA0C55" stroke-width="1" opacity=".25"/>
  <path d="M170 220 Q120 280 220 380 Q240 420 100 460" fill="none" stroke="#455377" stroke-width="1.2" opacity=".28"/>
  <path d="M80 260 Q50 310 180 430 Q200 460 130 520" fill="none" stroke="#D4A843" stroke-width="1" opacity=".22"/>
  <path d="M150 340 Q100 400 210 500 Q230 530 90 580" fill="none" stroke="#455377" stroke-width="1" opacity=".25"/>
  <path d="M220 380 Q250 420 140 560 Q120 590 190 640" fill="none" stroke="#CA0C55" stroke-width=".9" opacity=".2"/>
  <path d="M100 460 Q60 500 200 600" fill="none" stroke="#455377" stroke-width=".9" opacity=".22"/>

  <!-- Nodos grandes con más color -->
  <circle cx="180" cy="40" r="9" fill="#455377" opacity=".4"/>
  <circle cx="180" cy="40" r="4" fill="#455377" opacity=".6"/>

  <circle cx="130" cy="140" r="12" fill="#455377" opacity=".35"/>
  <circle cx="130" cy="140" r="5" fill="#455377" opacity=".55"/>

  <circle cx="170" cy="220" r="8" fill="#CA0C55" opacity=".4"/>
  <circle cx="170" cy="220" r="3" fill="#CA0C55" opacity=".6"/>

  <circle cx="80" cy="260" r="10" fill="#455377" opacity=".35"/>
  <circle cx="80" cy="260" r="4" fill="#455377" opacity=".55"/>

  <circle cx="150" cy="340" r="9" fill="#CA0C55" opacity=".35"/>
  <circle cx="150" cy="340" r="3.5" fill="#CA0C55" opacity=".55"/>

  <circle cx="220" cy="380" r="11" fill="#455377" opacity=".35"/>
  <circle cx="220" cy="380" r="5" fill="#455377" opacity=".55"/>

  <circle cx="100" cy="460" r="8" fill="#D4A843" opacity=".45"/>
  <circle cx="100" cy="460" r="3" fill="#D4A843" opacity=".65"/>

  <circle cx="180" cy="430" r="9" fill="#455377" opacity=".35"/>
  <circle cx="180" cy="430" r="4" fill="#455377" opacity=".55"/>

  <circle cx="130" cy="520" r="12" fill="#CA0C55" opacity=".3"/>
  <circle cx="130" cy="520" r="5" fill="#CA0C55" opacity=".5"/>

  <circle cx="210" cy="500" r="8" fill="#455377" opacity=".35"/>
  <circle cx="210" cy="500" r="3" fill="#455377" opacity=".55"/>

  <circle cx="90" cy="580" r="9" fill="#D4A843" opacity=".38"/>
  <circle cx="90" cy="580" r="3.5" fill="#D4A843" opacity=".58"/>

  <circle cx="140" cy="560" r="7" fill="#455377" opacity=".35"/>
  <circle cx="140" cy="560" r="3" fill="#455377" opacity=".55"/>

  <circle cx="190" cy="640" r="10" fill="#455377" opacity=".3"/>
  <circle cx="190" cy="640" r="4" fill="#455377" opacity=".5"/>

  <circle cx="200" cy="600" r="6" fill="#CA0C55" opacity=".28"/>
  <circle cx="200" cy="600" r="2.5" fill="#CA0C55" opacity=".48"/>

  <!-- Puntos sueltos flotando -->
  <circle cx="50" cy="180" r="4" fill="#455377" opacity=".22"/>
  <circle cx="230" cy="300" r="3" fill="#D4A843" opacity=".25"/>
  <circle cx="40" cy="480" r="4" fill="#455377" opacity=".2"/>
  <circle cx="240" cy="550" r="3" fill="#CA0C55" opacity=".22"/>
</svg>