<svg xmlns="http://www.w3.org/2000/svg" width="180" height="600" viewBox="0 0 180 600">
  <!-- Líneas desordenadas -->
  <path d="M30 80 Q80 60 120 140 Q90 180 50 230" fill="none" stroke="#455377" stroke-width="1.2" opacity=".28"/>
  <path d="M120 140 Q140 200 70 280 Q40 320 100 380" fill="none" stroke="#CA0C55" stroke-width="1" opacity=".22"/>
  <path d="M50 230 Q20 280 130 340 Q150 380 40 450" fill="none" stroke="#455377" stroke-width="1.2" opacity=".25"/>
  <path d="M100 380 Q130 420 60 500 Q30 530 110 560" fill="none" stroke="#D4A843" stroke-width="1" opacity=".2"/>

  <!-- Nodos grandes -->
  <circle cx="30" cy="80" r="8" fill="#455377" opacity=".4"/>
  <circle cx="30" cy="80" r="3.5" fill="#455377" opacity=".6"/>

  <circle cx="120" cy="140" r="10" fill="#455377" opacity=".35"/>
  <circle cx="120" cy="140" r="4" fill="#455377" opacity=".55"/>

  <circle cx="50" cy="230" r="9" fill="#CA0C55" opacity=".38"/>
  <circle cx="50" cy="230" r="3.5" fill="#CA0C55" opacity=".58"/>

  <circle cx="70" cy="280" r="8" fill="#455377" opacity=".38"/>
  <circle cx="70" cy="280" r="3" fill="#455377" opacity=".58"/>

  <circle cx="100" cy="380" r="10" fill="#455377" opacity=".35"/>
  <circle cx="100" cy="380" r="4" fill="#455377" opacity=".55"/>

  <circle cx="130" cy="340" r="7" fill="#CA0C55" opacity=".32"/>
  <circle cx="130" cy="340" r="3" fill="#CA0C55" opacity=".52"/>

  <circle cx="40" cy="450" r="9" fill="#D4A843" opacity=".4"/>
  <circle cx="40" cy="450" r="3.5" fill="#D4A843" opacity=".6"/>

  <circle cx="60" cy="500" r="7" fill="#455377" opacity=".35"/>
  <circle cx="60" cy="500" r="3" fill="#455377" opacity=".55"/>

  <circle cx="110" cy="560" r="9" fill="#455377" opacity=".32"/>
  <circle cx="110" cy="560" r="3.5" fill="#455377" opacity=".52"/>

  <!-- Puntos flotantes -->
  <circle cx="150" cy="80" r="3.5" fill="#CA0C55" opacity=".25"/>
  <circle cx="20" cy="360" r="4" fill="#455377" opacity=".2"/>
  <circle cx="160" cy="480" r="3" fill="#D4A843" opacity=".22"/>
  <circle cx="30" cy="540" r="4" fill="#455377" opacity=".2"/>
</svg>